<svg width="270" height="270" viewBox="0 0 270 270" fill="none" xmlns="http://www.w3.org/2000/svg">
  <path fill-rule="evenodd" clip-rule="evenodd"
    d="M205.711 64.2893C166.658 25.2369 103.342 25.2369 64.2893 64.2893C25.2369 103.342 25.2369 166.658 64.2893 205.711C103.342 244.763 166.658 244.763 205.711 205.711C244.763 166.658 244.763 103.342 205.711 64.2893ZM194.37 75.6297C227.16 108.419 227.16 161.581 194.37 194.37C161.581 227.16 108.419 227.16 75.6297 194.37C71.8265 190.567 68.4645 186.49 65.5435 182.202C44.1978 149.519 47.8746 105.273 76.5739 76.5736C105.268 47.8794 149.504 44.1988 182.185 65.5319C186.479 68.4555 190.562 71.8215 194.37 75.6297Z"
    fill="#8C8E90" />
  <path fill-rule="evenodd" clip-rule="evenodd"
    d="M128.41 58.6205C111.041 60.1102 94.0836 67.5007 80.7923 80.792C67.5009 94.0833 60.1105 111.041 58.6208 128.41H107.447C119.024 128.41 128.41 119.024 128.41 107.447V58.6205ZM58.437 138.891C59.3615 157.194 66.8132 175.228 80.7923 189.207C94.0836 202.499 111.041 209.889 128.41 211.379V159.854C128.41 148.276 119.024 138.891 107.447 138.891H58.437ZM138.891 211.563C157.194 210.638 175.228 203.186 189.208 189.207C203.187 175.228 210.638 157.194 211.563 138.891H159.854C148.276 138.891 138.891 148.276 138.891 159.854V211.563ZM211.379 128.41C209.889 111.041 202.499 94.0833 189.208 80.792C175.228 66.8129 157.194 59.3611 138.891 58.4366V107.447C138.891 119.024 148.276 128.41 159.854 128.41H211.379Z"
    fill="#8C8E90" />
</svg>