<svg width="250" height="250" viewBox="0 0 250 250" fill="none" xmlns="http://www.w3.org/2000/svg">
<rect width="250" height="250" rx="24" fill="#EBD1B9"/>
<path d="M97.2 126.5H153.2" stroke="#5A2B28" stroke-opacity="0.7" stroke-width="1.2" stroke-linecap="round"/>
<mask id="path-3-outside-1_189_12008" maskUnits="userSpaceOnUse" x="78" y="107.5" width="94" height="64" fill="black">
<rect fill="white" x="78" y="107.5" width="94" height="64"/>
<path d="M87.2 109.5H163.2L170.2 137.499C170.2 137.499 170.199 137.5 170.199 137.5H80.2128C80.2063 137.5 80.2015 137.494 80.2031 137.488L87.2 109.5Z"/>
<path d="M80 138.5H170.3V169.5H80V138.5Z"/>
</mask>
<path d="M87.2 109.5V108.3H86.2631L86.0358 109.209L87.2 109.5ZM163.2 109.5L164.364 109.209L164.137 108.3H163.2V109.5ZM80 138.5V137.3H78.8V138.5H80ZM170.3 138.5H171.5V137.3H170.3V138.5ZM170.3 169.5V170.7H171.5V169.5H170.3ZM80 169.5H78.8V170.7H80V169.5ZM80.2031 137.488L81.3673 137.779L80.2031 137.488ZM170.2 137.499L169.035 137.79L169.035 137.79L170.2 137.499ZM87.2 110.7H163.2V108.3H87.2V110.7ZM162.036 109.791L169.035 137.79L171.364 137.208L164.364 109.209L162.036 109.791ZM170.199 136.3H80.2128V138.7H170.199V136.3ZM81.3673 137.779L88.3642 109.791L86.0358 109.209L79.0389 137.197L81.3673 137.779ZM80 139.7H170.3V137.3H80V139.7ZM169.1 138.5V169.5H171.5V138.5H169.1ZM170.3 168.3H80V170.7H170.3V168.3ZM81.2 169.5V138.5H78.8V169.5H81.2ZM80.2128 136.3C80.9866 136.3 81.5551 137.027 81.3673 137.779L79.0389 137.197C78.8479 137.961 79.426 138.7 80.2128 138.7V136.3ZM169.035 137.79C168.846 137.032 169.42 136.3 170.199 136.3V138.7C170.978 138.7 171.554 137.967 171.364 137.208L169.035 137.79Z" fill="#5A2B28" fill-opacity="0.7" mask="url(#path-3-outside-1_189_12008)"/>
<mask id="path-5-inside-2_189_12008" fill="white">
<rect x="104.2" y="80" width="42" height="47" rx="1"/>
</mask>
<rect x="104.2" y="80" width="42" height="47" rx="1" fill="#EBD1B9" stroke="#5A2B28" stroke-opacity="0.7" stroke-width="2.4" mask="url(#path-5-inside-2_189_12008)"/>
<mask id="path-6-inside-3_189_12008" fill="white">
<rect x="112" y="92" width="6" height="6" rx="1"/>
</mask>
<rect x="112" y="92" width="6" height="6" rx="1" stroke="#5A2B28" stroke-opacity="0.7" stroke-width="2.4" mask="url(#path-6-inside-3_189_12008)"/>
<mask id="path-7-inside-4_189_12008" fill="white">
<rect x="112" y="101" width="6" height="6" rx="1"/>
</mask>
<rect x="112" y="101" width="6" height="6" rx="1" stroke="#5A2B28" stroke-opacity="0.7" stroke-width="2.4" mask="url(#path-7-inside-4_189_12008)"/>
<mask id="path-8-inside-5_189_12008" fill="white">
<rect x="112" y="110" width="6" height="6" rx="1"/>
</mask>
<rect x="112" y="110" width="6" height="6" rx="1" stroke="#5A2B28" stroke-opacity="0.7" stroke-width="2.4" mask="url(#path-8-inside-5_189_12008)"/>
<path d="M121 95H136" stroke="#5A2B28" stroke-opacity="0.7" stroke-width="1.2" stroke-linecap="round"/>
<path d="M121 104H136" stroke="#5A2B28" stroke-opacity="0.7" stroke-width="1.2" stroke-linecap="round"/>
<path d="M121 113H136" stroke="#5A2B28" stroke-opacity="0.7" stroke-width="1.2" stroke-linecap="round"/>
<path fill-rule="evenodd" clip-rule="evenodd" d="M211.071 204.929C207.166 201.024 200.834 201.024 196.929 204.929C193.024 208.834 193.024 215.166 196.929 219.071C200.834 222.976 207.166 222.976 211.071 219.071C214.976 215.166 214.976 208.834 211.071 204.929ZM209.937 206.063C213.216 209.342 213.216 214.658 209.937 217.937C206.658 221.216 201.342 221.216 198.063 217.937C197.683 217.557 197.346 217.149 197.054 216.72C194.92 213.452 195.288 209.027 198.157 206.157C201.027 203.288 205.45 202.92 208.719 205.053C209.148 205.346 209.556 205.682 209.937 206.063Z" fill="#855D53"/>
<path fill-rule="evenodd" clip-rule="evenodd" d="M203.341 204.362C201.604 204.511 199.908 205.25 198.579 206.579C197.25 207.908 196.511 209.604 196.362 211.341H201.245C202.402 211.341 203.341 210.402 203.341 209.245V204.362ZM196.344 212.389C196.436 214.219 197.181 216.023 198.579 217.421C199.908 218.75 201.604 219.489 203.341 219.638V214.485C203.341 213.328 202.402 212.389 201.245 212.389H196.344ZM204.389 219.656C206.219 219.564 208.023 218.819 209.421 217.421C210.819 216.023 211.564 214.219 211.656 212.389H206.485C205.328 212.389 204.389 213.328 204.389 214.485V219.656ZM211.638 211.341C211.489 209.604 210.75 207.908 209.421 206.579C208.023 205.181 206.219 204.436 204.389 204.344V209.245C204.389 210.402 205.328 211.341 206.485 211.341H211.638Z" fill="#855D53"/>
<path d="M40.6785 217C40.5291 217 40.4125 216.963 40.3285 216.888C40.2445 216.813 40.1838 216.72 40.1465 216.608L37.1505 207.62C37.1318 207.573 37.1225 207.531 37.1225 207.494C37.1225 207.41 37.1505 207.34 37.2065 207.284C37.2625 207.228 37.3325 207.2 37.4165 207.2H38.6485C38.7791 207.2 38.8771 207.237 38.9425 207.312C39.0171 207.377 39.0638 207.443 39.0825 207.508L41.4485 214.718L43.8005 207.508C43.8285 207.443 43.8751 207.377 43.9405 207.312C44.0151 207.237 44.1178 207.2 44.2485 207.2H45.4805C45.5551 207.2 45.6205 207.228 45.6765 207.284C45.7418 207.34 45.7745 207.41 45.7745 207.494C45.7745 207.531 45.7651 207.573 45.7465 207.62L42.7505 216.608C42.7131 216.72 42.6525 216.813 42.5685 216.888C42.4845 216.963 42.3678 217 42.2185 217H40.6785ZM49.5698 217.14C48.8231 217.14 48.1931 217.009 47.6798 216.748C47.1758 216.487 46.7884 216.118 46.5178 215.642C46.2564 215.166 46.1071 214.611 46.0698 213.976C46.0604 213.808 46.0558 213.603 46.0558 213.36C46.0558 213.117 46.0604 212.912 46.0698 212.744C46.1071 212.1 46.2611 211.545 46.5318 211.078C46.8118 210.602 47.2038 210.233 47.7078 209.972C48.2211 209.711 48.8418 209.58 49.5698 209.58C50.2978 209.58 50.9138 209.711 51.4178 209.972C51.9311 210.233 52.3231 210.602 52.5938 211.078C52.8738 211.545 53.0324 212.1 53.0698 212.744C53.0791 212.912 53.0838 213.117 53.0838 213.36C53.0838 213.603 53.0791 213.808 53.0698 213.976C53.0324 214.611 52.8784 215.166 52.6078 215.642C52.3464 216.118 51.9591 216.487 51.4458 216.748C50.9418 217.009 50.3164 217.14 49.5698 217.14ZM49.5698 215.754C50.0644 215.754 50.4471 215.6 50.7178 215.292C50.9884 214.975 51.1378 214.513 51.1658 213.906C51.1751 213.766 51.1798 213.584 51.1798 213.36C51.1798 213.136 51.1751 212.954 51.1658 212.814C51.1378 212.217 50.9884 211.759 50.7178 211.442C50.4471 211.125 50.0644 210.966 49.5698 210.966C49.0751 210.966 48.6924 211.125 48.4218 211.442C48.1511 211.759 48.0018 212.217 47.9738 212.814C47.9644 212.954 47.9598 213.136 47.9598 213.36C47.9598 213.584 47.9644 213.766 47.9738 213.906C48.0018 214.513 48.1511 214.975 48.4218 215.292C48.6924 215.6 49.0751 215.754 49.5698 215.754ZM57.8703 217C57.3103 217 56.8389 216.902 56.4563 216.706C56.0736 216.51 55.7889 216.221 55.6023 215.838C55.4156 215.446 55.3223 214.961 55.3223 214.382V211.204H54.2163C54.1229 211.204 54.0436 211.171 53.9783 211.106C53.9129 211.041 53.8803 210.961 53.8803 210.868V210.056C53.8803 209.963 53.9129 209.883 53.9783 209.818C54.0436 209.753 54.1229 209.72 54.2163 209.72H55.3223V207.396C55.3223 207.303 55.3503 207.223 55.4062 207.158C55.4716 207.093 55.5556 207.06 55.6583 207.06H56.7923C56.8856 207.06 56.9649 207.093 57.0303 207.158C57.0956 207.223 57.1283 207.303 57.1283 207.396V209.72H58.8783C58.9716 209.72 59.0509 209.753 59.1163 209.818C59.1816 209.883 59.2143 209.963 59.2143 210.056V210.868C59.2143 210.961 59.1816 211.041 59.1163 211.106C59.0509 211.171 58.9716 211.204 58.8783 211.204H57.1283V214.242C57.1283 214.625 57.1936 214.923 57.3243 215.138C57.4643 215.353 57.7023 215.46 58.0383 215.46H59.0043C59.0976 215.46 59.1769 215.493 59.2423 215.558C59.3076 215.623 59.3403 215.703 59.3403 215.796V216.664C59.3403 216.757 59.3076 216.837 59.2423 216.902C59.1769 216.967 59.0976 217 59.0043 217H57.8703ZM60.9182 217C60.8249 217 60.7455 216.967 60.6802 216.902C60.6149 216.837 60.5822 216.757 60.5822 216.664V210.056C60.5822 209.963 60.6149 209.883 60.6802 209.818C60.7455 209.753 60.8249 209.72 60.9182 209.72H62.0802C62.1829 209.72 62.2622 209.753 62.3182 209.818C62.3835 209.883 62.4162 209.963 62.4162 210.056V216.664C62.4162 216.757 62.3835 216.837 62.3182 216.902C62.2622 216.967 62.1829 217 62.0802 217H60.9182ZM60.8622 208.516C60.7595 208.516 60.6755 208.488 60.6102 208.432C60.5542 208.367 60.5262 208.283 60.5262 208.18V207.172C60.5262 207.079 60.5542 206.999 60.6102 206.934C60.6755 206.869 60.7595 206.836 60.8622 206.836H62.1362C62.2389 206.836 62.3229 206.869 62.3882 206.934C62.4535 206.999 62.4862 207.079 62.4862 207.172V208.18C62.4862 208.283 62.4535 208.367 62.3882 208.432C62.3229 208.488 62.2389 208.516 62.1362 208.516H60.8622ZM64.8967 217C64.8034 217 64.7241 216.967 64.6587 216.902C64.5934 216.837 64.5607 216.757 64.5607 216.664V210.056C64.5607 209.963 64.5934 209.883 64.6587 209.818C64.7241 209.753 64.8034 209.72 64.8967 209.72H66.0447C66.1381 209.72 66.2174 209.753 66.2827 209.818C66.3481 209.883 66.3807 209.963 66.3807 210.056V210.63C66.6234 210.331 66.9314 210.084 67.3047 209.888C67.6874 209.683 68.1587 209.58 68.7187 209.58C69.2881 209.58 69.7827 209.711 70.2027 209.972C70.6227 210.224 70.9447 210.583 71.1687 211.05C71.4021 211.517 71.5187 212.077 71.5187 212.73V216.664C71.5187 216.757 71.4861 216.837 71.4207 216.902C71.3554 216.967 71.2761 217 71.1827 217H69.9507C69.8574 217 69.7781 216.967 69.7127 216.902C69.6474 216.837 69.6147 216.757 69.6147 216.664V212.814C69.6147 212.273 69.4794 211.848 69.2087 211.54C68.9474 211.232 68.5647 211.078 68.0607 211.078C67.5754 211.078 67.1881 211.232 66.8987 211.54C66.6094 211.848 66.4647 212.273 66.4647 212.814V216.664C66.4647 216.757 66.4321 216.837 66.3667 216.902C66.3014 216.967 66.2221 217 66.1287 217H64.8967ZM76.587 220.08C75.9057 220.08 75.3457 219.991 74.907 219.814C74.4684 219.637 74.123 219.422 73.871 219.17C73.619 218.918 73.437 218.666 73.325 218.414C73.2224 218.171 73.1664 217.98 73.157 217.84C73.1477 217.747 73.1757 217.663 73.241 217.588C73.3157 217.523 73.3997 217.49 73.493 217.49H74.711C74.8044 217.49 74.879 217.509 74.935 217.546C74.991 217.593 75.0377 217.672 75.075 217.784C75.131 217.905 75.2057 218.036 75.299 218.176C75.3924 218.316 75.5324 218.433 75.719 218.526C75.915 218.629 76.181 218.68 76.517 218.68C76.8717 218.68 77.1704 218.629 77.413 218.526C77.6557 218.423 77.8377 218.251 77.959 218.008C78.0897 217.765 78.155 217.429 78.155 217V216.048C77.931 216.319 77.6417 216.538 77.287 216.706C76.9417 216.874 76.5124 216.958 75.999 216.958C75.495 216.958 75.061 216.879 74.697 216.72C74.333 216.552 74.0297 216.323 73.787 216.034C73.5444 215.735 73.3577 215.385 73.227 214.984C73.1057 214.583 73.0357 214.139 73.017 213.654C73.0077 213.402 73.0077 213.15 73.017 212.898C73.0357 212.431 73.1057 211.997 73.227 211.596C73.3484 211.195 73.5304 210.845 73.773 210.546C74.025 210.238 74.333 210 74.697 209.832C75.061 209.664 75.495 209.58 75.999 209.58C76.531 209.58 76.979 209.683 77.343 209.888C77.707 210.084 78.0057 210.331 78.239 210.63V210.07C78.239 209.967 78.2717 209.883 78.337 209.818C78.4024 209.753 78.4817 209.72 78.575 209.72H79.709C79.8024 209.72 79.8817 209.753 79.947 209.818C80.0124 209.883 80.045 209.967 80.045 210.07L80.059 216.818C80.059 217.49 79.933 218.069 79.681 218.554C79.429 219.039 79.0464 219.413 78.533 219.674C78.029 219.945 77.3804 220.08 76.587 220.08ZM76.517 215.474C76.8997 215.474 77.2077 215.39 77.441 215.222C77.6744 215.054 77.847 214.835 77.959 214.564C78.071 214.293 78.1364 214.018 78.155 213.738C78.1644 213.617 78.169 213.463 78.169 213.276C78.169 213.089 78.1644 212.94 78.155 212.828C78.1364 212.539 78.071 212.263 77.959 212.002C77.847 211.731 77.6744 211.512 77.441 211.344C77.2077 211.167 76.8997 211.078 76.517 211.078C76.1344 211.078 75.8264 211.167 75.593 211.344C75.3597 211.512 75.1917 211.736 75.089 212.016C74.9957 212.296 74.9397 212.604 74.921 212.94C74.9024 213.164 74.9024 213.393 74.921 213.626C74.9397 213.953 74.9957 214.261 75.089 214.55C75.1917 214.83 75.3597 215.054 75.593 215.222C75.8264 215.39 76.1344 215.474 76.517 215.474Z" fill="#855D53"/>
</svg>
